<?xml version="1.0" encoding="UTF-8"?>
<svg width="265.34mm" height="265.34mm" version="1.1" viewBox="0 0 265.34 265.34" xmlns="http://www.w3.org/2000/svg">
 <g transform="translate(11.153 -62.706)">
  <circle cx="118.23" cy="152.78" r="142.87" fill="none"/>
  <g transform="translate(-3.0238 66.946)" stroke-width=".26458">
   <path d="m112.49 57.589-0.62462-0.5056-0.1496-21.856 0.59644-1.4399 1.6165-0.56351h23.704l1.4847 1.2771v22.582l-0.62462 0.50579-0.62463 0.50579h-24.754z"/>
   <path d="m113.39 88.055-0.59004-0.09737-0.54267-0.68989-0.54266-0.68989 0.0744-11.09 0.0744-11.09 0.62462-0.50561 0.62463-0.5055h24.754l0.62463 0.5056 0.62462 0.5056 0.1488 22.223-1.2936 1.504-23.991 0.02704-0.59004-0.09738z"/>
   <path d="m80.975 88.053-0.72472-0.09486-0.79953-1.1415v-22.28l1.2247-1.1506h24.877l0.57529 0.61236 0.57528 0.61236v22.265l-0.50574 0.62463-0.50575 0.62462-23.992 0.0228-0.72472-0.09486z"/>
   <path d="m48.167 88.053-0.72472-0.09486-0.79953-1.1415v-22.28l1.2247-1.1506h24.869l1.1581 1.0789v22.41l-0.50575 0.62463-0.50575 0.62462-23.992 0.0228-0.72472-0.09486z"/>
   <path d="m145.24 117.61-0.69714-0.54837v-22.393l1.0116-1.2492h25.229l1.0116 1.2492v22.339l-0.61236 0.57529-0.61237 0.57529h-24.633z"/>
   <path d="m112.49 117.65-0.62462-0.50559-0.1496-21.856 0.29593-0.71444 0.29594-0.71444 1.4252-0.59032 24.18 0.14806 0.60247 0.60266 0.60246 0.60266v22.522l-0.62462 0.50579-0.62463 0.50579h-24.754z"/>
   <path d="m80.148 117.61-0.69714-0.54837v-22.393l1.0116-1.2492h25.229l1.0116 1.2492v22.339l-0.61236 0.57529-0.61237 0.57529h-24.633z"/>
   <path d="m47.339 117.61-0.69714-0.54837v-22.393l1.0116-1.2492h25.229l1.0116 1.2492v22.339l-1.2247 1.1506h-24.633z"/>
   <path d="m14.938 117.54-0.57529-0.61236v-22.506l1.1139-1.0081h25.127l1.0116 1.2492v22.393l-1.3943 1.0967h-24.707z"/>
   <path d="m76.143 223.43-4.4979-0.20807-8.6977-0.85586-7.9955-1.2519-8.7068-1.8783-7.1438-2.1528-6.0854-2.417-4.7625-2.3598-4.1124-2.4444-4.6189-3.4479-5.749-5.5726-4.2735-5.2917-4.1607-6.35-4.6959-9.525-2.7091-7.2998-1.1524-4.023-1.1524-4.023-1.3633-6.0979-0.51407-3.0365-0.51407-3.0365-0.41297-3.3073-0.41297-3.3073-0.26672-3.8364-0.26672-3.8365-0.00784-7.6729 0.46433-1.3053 0.46433-1.3053 2.5029-2.7436 2.7888-1.2604 180.98-0.28661 5.8208-1.1535 4.9291-1.337 1.9011-0.79717 1.9011-0.79716 0.31451-0.20114 0.31452-0.20114-3.397-6.868-1.3137-4.6224-0.87834-5.9609 0.14267-3.5719 0.14266-3.5719 0.42774-2.3812 0.42775-2.3812 1.3282-4.4979 1.6291-4.2333 2.5498-5.1437 3.5607-5.3313 0.33263-0.20557 5.0021 2.937 4.2333 3.3312 2.1626 2.2061 2.1626 2.2061 1.8833 2.5135 1.8832 2.5135 1.5557 3.175 1.5557 3.175 0.7997 2.5365 0.79973 2.5365 0.17674 1.3322 0.17672 1.3322 0.19338 0.31292 0.19341 0.31293 7.6238-0.88233 9.7896 0.26996 4.7625 0.86534 2.249 0.67946 2.249 0.67947 1.5738 0.66024 1.5738 0.66025 2.9377 1.8717 1.2357 1.0301 1.2357 1.0301-0.79391 2.1758-0.79388 2.1758-2.0688 3.9688-1.7054 2.2687-1.7054 2.2687-2.385 2.2697-2.385 2.2697-4.3924 2.9049-2.1167 1.0534-2.1167 1.0534-3.8375 1.3787-4.2474 1.0845-5.4089 0.76893-6.9361 0.01-1.0013 2.4474-1.0014 2.4474-1.9772 4.4979-1.9771 4.4979-4.9468 9.7896-3.7745 6.6146-2.7258 4.101-2.7258 4.101-3.5722 4.7625-5.0402 6.0854-9.0362 9.0457-6.6718 5.5064-6.0335 4.331-7.403 4.6475-10.583 5.3381-9.525 3.758-7.6042 2.4349-6.0274 1.5975-6.7413 1.5214-7.9375 1.3685-8.9958 1.0427-8.4667 0.55958-11.906 0.1662z"/>
  </g>
 </g>
</svg>
