<?xml version="1.0" encoding="UTF-8"?>
<svg width="42.607mm" height="41.555mm" version="1.1" viewBox="0 0 42.607 41.555" xmlns="http://www.w3.org/2000/svg">
 <g transform="translate(-85.077 -37.297)">
  <g transform="translate(-37.798 -5.2917)">
   <path d="m144.18 42.589c-11.764 0-21.304 9.5373-21.304 21.304 0 9.4121 6.1041 17.398 14.569 20.215 1.0647 0.1972 1.4556-0.46214 1.4556-1.0248 0-0.50765-0.0198-2.1862-0.0289-3.9663-5.9267 1.2887-7.1773-2.5135-7.1773-2.5135-0.96908-2.462-2.3654-3.1171-2.3654-3.1171-1.9329-1.3222 0.1457-1.295 0.1457-1.295 2.1392 0.15028 3.2657 2.1957 3.2657 2.1957 1.9001 3.2565 4.9837 2.3149 6.1994 1.7706 0.19156-1.3765 0.7433-2.3167 1.3526-2.8487-4.7318-0.53834-9.706-2.3654-9.706-10.528 0-2.3255 0.83221-4.2263 2.195-5.7182-0.22119-0.53658-0.95039-2.7033 0.20673-5.6377 0 0 1.7889-0.57221 5.8596 2.184 1.6993-0.47202 3.5218-0.70873 5.3322-0.7172 1.8105 0.0085 3.6343 0.24518 5.3368 0.7172 4.0661-2.7563 5.8526-2.184 5.8526-2.184 1.1596 2.9344 0.43038 5.1012 0.20919 5.6377 1.366 1.4919 2.1922 3.3927 2.1922 5.7182 0 8.1827-4.9837 9.984-9.7275 10.511 0.76412 0.6611 1.445 1.9576 1.445 3.9451 0 2.8504-0.0243 5.1446-0.0243 5.8462 0 0.56727 0.38311 1.2312 1.463 1.0224 8.4603-2.8201 14.557-10.803 14.557-20.212 0-11.766-9.538-21.304-21.304-21.304" fill-rule="evenodd"/>
  </g>
 </g>
</svg>
