<?xml version="1.0" encoding="UTF-8"?>
<svg width="448" height="448" version="1.1" viewBox="0 0 448 448" xmlns="http://www.w3.org/2000/svg">
 <title>Google Scholar</title>
 <g transform="translate(0,-32)">
  <path d="m48 32c-26.5 0-48 21.5-48 48v352c0 26.5 21.5 48 48 48h352c26.5 0 48-21.5 48-48v-352c0-26.5-21.5-48-48-48zm140.7 64h178.24l-16.471 12.859v22.693c6.1159 0.78532 5.4688 4.4602 5.4688 8.8574v107.22c0 4.9656-4.062 9.0293-9.0273 9.0293h-3.3242c-4.9656 0-9.0293-4.064-9.0293-9.0293v-107.22c0-4.4078-0.63995-8.0866 5.5215-8.8613v-14.266l-47.424 38.893c0.54795 1.0157 1.0678 1.6675 1.5625 2.5195 4.1668 7.3774 6.2891 16.549 6.2891 27.76 0 8.5932-1.432 16.315-4.3359 23.131-2.8908 6.8174-6.4066 12.385-10.508 16.674-4.1012 4.3043-8.2154 8.2361-12.33 11.777-4.1133 3.5481-7.6291 7.2466-10.508 11.088-2.9014 3.8281-4.3476 7.7875-4.3476 11.889 0 4.1081 1.8759 8.2808 5.6133 12.486 3.7239 4.2186 8.3053 8.3064 13.723 12.344 5.4294 4.0104 10.846 8.4628 16.264 13.307 5.429 4.8358 9.9871 11.061 13.711 18.621 3.7505 7.5852 5.625 15.937 5.625 25.117 0 12.109-3.0876 23.046-9.2461 32.779-6.172 9.6932-14.219 17.429-24.102 23.1-9.909 5.7094-20.507 10.006-31.809 12.91-11.328 2.8773-22.565 4.3223-33.789 4.3223-7.0842 0-14.233-0.5475-21.422-1.666-7.2122-1.12-14.438-3.0983-21.717-5.8848-7.2917-2.8066-13.751-6.2508-19.35-10.391-5.612-4.0947-10.13-9.3817-13.594-15.82-3.4639-6.4385-5.1836-13.679-5.1836-21.719 0-9.5386 2.6569-18.385 7.9824-26.635 5.3251-8.1893 12.382-15.026 21.158-20.441 15.313-9.5255 39.336-15.411 72.031-17.637-7.4733-9.3428-11.223-18.14-11.223-26.369 0-4.6827 1.2219-9.6998 3.6445-15.117-3.9065 0.54687-7.9286 0.85352-12.031 0.85352-17.563 0-32.395-5.7095-44.439-17.207-12.044-11.479-18.059-25.846-18.059-43.217 0-1.816 0.0522-3.4187 0.18164-5.1894h-71.379zm31.379 38.334c-11.199 0-19.792 4.0291-25.781 12.07-5.9879 8.0201-8.9844 17.735-8.9844 29.146 0 9.7198 1.6406 19.616 4.9219 29.707 3.2681 10.085 8.6212 19.089 16.121 27.025 7.4732 7.9559 16.172 11.926 26.055 11.926 11.016 0 19.623-3.6894 25.795-11.072 6.145-7.3704 9.2305-16.673 9.2305-27.879 0-9.5452-1.6264-19.537-4.8945-29.986-3.2561-10.462-8.685-19.903-16.264-28.307-7.5523-8.4321-16.303-12.631-26.199-12.631zm18.518 172.08c-8.0347 0-15.939 0.71228-23.699 2.1309-7.7602 1.38-15.417 3.7099-22.969 6.998-7.5786 3.2696-13.698 8.075-18.359 14.43-4.6878 6.3467-7.0195 13.822-7.0195 22.422 0 8.1958 2.0591 15.506 6.1738 21.873 4.1026 6.3277 9.518 11.284 16.25 14.832 6.732 3.5547 13.789 6.2361 21.158 8 7.3828 1.7518 14.897 2.6641 22.553 2.6641 15.143 0 28.176-3.4112 39.113-10.229 10.911-6.8159 16.381-17.342 16.381-31.549 0-2.9881-0.41689-5.932-1.2383-8.8027-0.85861-2.9039-1.7036-5.3892-2.5371-7.4531-0.83345-2.0252-2.4217-4.4673-4.7656-7.2793-2.3308-2.8186-4.1157-4.9026-5.3144-6.2891-1.2239-1.4321-3.5122-3.477-6.8867-6.1797-3.3443-2.7138-5.4803-4.4055-6.4316-5.0312h-2e-3c-0.93771-0.65762-3.3717-2.4355-7.291-5.3203-3.9189-2.9108-6.0665-4.4541-6.4453-4.6367-2.0574-0.37077-4.9461-0.58008-8.6699-0.58008z"/>
 </g>
</svg>
