<?xml version="1.0" encoding="UTF-8"?>
<svg width="67.728mm" height="67.716mm" version="1.1" viewBox="0 0 67.728 67.716" xmlns="http://www.w3.org/2000/svg">
 <g transform="translate(-61.56 -18.283)">
  <path d="m64.597 85.51c-1.2808-0.59115-2.0869-1.4288-2.6332-2.7362-0.36148-0.86516-0.40882-4.4636-0.40369-30.688 0.0055-28.317 0.02868-29.758 0.49426-30.766 0.59115-1.2808 1.4288-2.0869 2.7362-2.6332 0.86516-0.36148 4.4636-0.40882 30.688-0.40369 28.317 0.0055 29.758 0.02868 30.766 0.49426 1.2808 0.59115 2.0869 1.4288 2.6332 2.7362 0.36135 0.86483 0.4095 4.4667 0.4095 30.63 0 26.164-0.0482 29.766-0.4095 30.63-0.54628 1.3074-1.3524 2.145-2.6332 2.7362-1.0091 0.46571-2.4439 0.48845-30.824 0.48845-28.38 0-29.815-0.02273-30.824-0.48845zm17.066-25.694v-16.14h-10.054v32.279h10.054zm15.347 6.9453c7.94e-4 -5.4413 0.11178-9.5914 0.27171-10.167 0.14863-0.53512 0.65398-1.5428 1.123-2.2392 2.1544-3.1991 6.9376-3.6713 9.2577-0.91395 1.3985 1.662 1.5169 2.6798 1.5169 13.038v9.477h10.054v-10.628c0-11.737-0.12347-13.087-1.4653-16.02-3.4418-7.5237-13.707-8.9588-19.892-2.781l-1.3965 1.3948v-4.2448h-9.525v32.279h10.054l0.0016-9.1943zm-17.24-28.564c1.5511-0.959 2.6869-3.0048 2.6869-4.8399 0-1.8787-1.1325-3.8789-2.7691-4.8907-1.093-0.67576-1.5568-0.79784-3.031-0.79784-1.4264 0-1.9661 0.13261-2.9903 0.73464-4.2119 2.4759-3.5644 8.6865 1.087 10.426 1.4278 0.5338 3.567 0.26441 5.0165-0.63172z" stroke-width=".26458"/>
 </g>
</svg>
