<?xml version="1.0" encoding="UTF-8"?>
<svg version="1.1" viewBox="0 0 256 256" xmlns="http://www.w3.org/2000/svg">
 <path d="m128 0c-70.7 0-128 57.3-128 128s57.3 128 128 128 128-57.3 128-128-57.3-128-128-128zm-49.4 46.699c5.6 0 10.1 4.6016 10.1 10.102s-4.4996 10.1-10.1 10.1-10.1-4.5996-10.1-10.1c0-5.6 4.4996-10.102 10.1-10.102zm-7.6992 32.4h15.4v48.4 58.699h-15.4v-107.1zm38 0h41.6c39.6 0 57 28.3 57 53.6 0 27.5-21.501 53.602-56.801 53.602h-41.799v-107.2zm15.4 13.9v79.4h24.5c34.9 0 42.898-26.501 42.898-39.701 0-21.5-13.699-39.699-43.699-39.699h-23.699z"/>
</svg>
