<?xml version="1.0" encoding="UTF-8"?>
<svg width="302.38mm" height="302.38mm" version="1.1" viewBox="0 0 302.38 302.38" xmlns="http://www.w3.org/2000/svg">
 <g transform="translate(49.137 3.0238)">
  <circle cx="102.05" cy="148.17" r="151.19" fill="none" stroke-opacity="0"/>
  <path d="m74.405 243.48c-30.067-0.54349-57.337-2.0442-69.545-3.8273-11.263-1.645-17.011-4.204-23.084-10.277-6.5639-6.5639-9.0739-12.643-11.207-27.144-2.3277-15.824-3.8158-44.735-3.2156-62.471 0.70147-20.727 1.6155-33.278 3.2156-44.156 2.1331-14.501 4.6431-20.581 11.207-27.144 5.0115-5.0114 10.492-7.9134 17.625-9.3329 7.9373-1.5795 21.422-2.8224 39.285-3.6207 28.134-1.2573 56.101-1.6627 84.071-1.2184 11.387 0.18087 23.68 0.4412 27.318 0.57852 35.391 1.3359 51.966 2.8938 59.658 5.6076 5.011 1.7678 8.7495 4.1377 12.598 7.9858 4.798 4.798 7.5989 9.8499 9.2222 16.634 2.8015 11.708 4.2684 27.128 5.2004 54.666 0.60026 17.736-0.88787 46.647-3.2156 62.471-2.1331 14.501-4.6431 20.581-11.207 27.144-6.073 6.073-11.821 8.632-23.084 10.277-20.626 3.0126-76.001 4.7102-124.84 3.8273zm5.3255-57.336c2.7463-1.5719 7.7912-4.4466 11.211-6.3882 14.74-8.3692 18.168-10.318 23.548-13.385 3.1287-1.7839 6.1648-3.5059 6.7469-3.8268 1.2855-0.70858 13.485-7.6487 19.282-10.97 2.3106-1.3236 4.197-2.5224 4.192-2.664-5e-3 -0.14161-1.4789-1.0974-3.2751-2.124-8.293-4.7396-19.266-10.98-20.464-11.637-0.7276-0.39939-3.347-1.8855-5.8208-3.3024s-7.5935-4.3334-11.377-6.4811c-15.366-8.7224-19.27-10.943-24.043-13.675-2.7463-1.5719-5.0382-2.8579-5.0932-2.8579-0.05499 0-0.09999 18.038-0.09999 40.084 0 22.046 0.045 40.084 0.09999 40.084s2.3469-1.2861 5.0932-2.8579z" stroke-width=".26458"/>
 </g>
</svg>
